<svg xmlns="http://www.w3.org/2000/svg" width="118.773" height="194.932" viewBox="0 0 118.773 194.932">
  <g id="Group_3" data-name="Group 3" transform="translate(-718.482 -448.217)">
    <g id="Layer_2" data-name="Layer 2" transform="translate(718.482 448.217)">
      <g id="Q3_icons" data-name="Q3 icons" transform="translate(0 0)">
        <path id="Path_3" data-name="Path 3" d="M82.1,60.793C73.667,46.679,52.771,32.565,41.406,31.1a3.608,3.608,0,1,0-.916,7.149c5.132.916,13.931,5.5,21.813,11.731-6.6,6.232-16.5,8.982-24.562,6.6-14.114-4.033-21.263-22.179-26.4-37.21l13.931-2.016c12.1-2.2,22.546-4.033,29.511.733s7.332,9.165,8.432,15.214l4.766,3.3a1.833,1.833,0,0,0,2.933-1.65c-1.1-8.615-3.849-17.23-11.914-22.729s-21.813-4.4-35.01-2.2A147.744,147.744,0,0,1,6.213,12.4H3.83a1.65,1.65,0,0,0-1.65,2.383l.733,2.2C8.6,34.214,16.478,57.86,35.541,63.542a31.894,31.894,0,0,0,8.248,1.1,35.743,35.743,0,0,0,24.2-9.715,53.89,53.89,0,0,1,7.882,9.715,3.483,3.483,0,0,0,3.116,1.833,4.033,4.033,0,0,0,2.383-.733A3.849,3.849,0,0,0,82.1,60.793Z" transform="translate(-2.004 -8.217)"/>
      </g>
    </g>
    <text id="K" transform="translate(735.928 558.813)" font-size="71" font-family="Laila-Medium, Laila" font-weight="500"><tspan x="0" y="0">K</tspan></text>
    <text id="S" transform="translate(765.256 591.149)" font-size="114" font-family="Laila-Light, Laila" font-weight="300"><tspan x="0" y="0">S</tspan></text>
  </g>
</svg>
