<svg xmlns="http://www.w3.org/2000/svg" width="51.73" height="67.08" viewBox="0 0 51.73 67.08"><defs><style>.cls-1{fill:#fff;}</style></defs><g id="Layer_2" data-name="Layer 2"><g id="Layer_1-2" data-name="Layer 1"><path class="cls-1" d="M30.78,21.68c.34.4.65.75.94,1.12q1.34,1.71,2.64,3.43a1.83,1.83,0,0,0,2.47.63,1.79,1.79,0,0,0,.38-2.51c-.08-.13-.17-.26-.25-.4a35.44,35.44,0,0,0-11.8-10.62,19.73,19.73,0,0,0-6.6-2.65,1.75,1.75,0,0,0-2.13,1.23,1.6,1.6,0,0,0,1.34,2,23.88,23.88,0,0,1,7.85,3.74c.82.54,1.6,1.14,2.45,1.76-.37.32-.62.56-.89.76-4.9,3.65-11.51,4.14-16.28-1.63C7.66,14.65,6,10,4.32,5.19l1.94-.3C10.17,4.33,14.07,3.67,18,3.24c5.67-.62,9.92,2.56,10.38,7.66a2.26,2.26,0,0,0,.76,1.18,5.56,5.56,0,0,0,1.39,1c.33.16.89.32,1.1.15a1.34,1.34,0,0,0,.4-1.12,27.65,27.65,0,0,0-1.13-4.54C29.32,3.45,26.47.84,22,.22A37.52,37.52,0,0,0,12,.54Q6.47,1.26,1,1.93C.1,2-.16,2.32.1,3.16q.5,1.61,1,3.21C2.74,11,4.43,15.52,7.33,19.5c4.17,5.75,9.61,7.85,16.16,6.22A16.67,16.67,0,0,0,30.78,21.68ZM46.37,38.06c2.45.89,4.22-.5,4-3a6.2,6.2,0,0,0-2.74-4.43A13.94,13.94,0,0,0,39,28.12,14,14,0,0,0,30,31a8,8,0,0,0-3.24,8.54c.72,3.19,2.91,5.22,5.71,6.6,3.23,1.59,6.55,3,9.81,4.54a23.43,23.43,0,0,1,3.35,1.89,5.38,5.38,0,0,1,2.48,3.31,5.46,5.46,0,0,1-2.33,5.59,12.37,12.37,0,0,1-12.95,1.67c-3.5-1.41-4.45-4.57-2.47-7.79a2.09,2.09,0,0,0-2.14-1,3,3,0,0,0-2.77,2.94C25.22,60.81,27,63.33,29.94,65a16.55,16.55,0,0,0,13.83,1.06,11.6,11.6,0,0,0,6.84-5.59c1.85-3.54,1.54-7.13-1.89-9.74a13.74,13.74,0,0,0-2.41-1.62c-2.71-1.3-5.47-2.52-8.21-3.73a18.77,18.77,0,0,1-6.52-4.21,5.72,5.72,0,0,1,1.29-9A10.78,10.78,0,0,1,39,30.91a8.6,8.6,0,0,1,4.48,1.25C45.64,33.56,46.93,35.4,46.37,38.06Zm-31.46,3c.26.23.41.33.53.46,2,2.1,4,4.22,6.09,6.3A43.5,43.5,0,0,0,24.86,51,2.53,2.53,0,0,0,29,50.25c.15-.37.14-.55-.31-.77a8.39,8.39,0,0,1-2.17-1.42c-1.68-1.61-3.28-3.3-4.9-5l-3.71-3.8c2.4-2.3,4.71-4.56,7.07-6.77,1.18-1.09,2.45-2.09,3.78-3.21-.59-2.17-2.39-2.77-4.36-1.19a11.33,11.33,0,0,0-1.22,1.18c-2.54,2.79-5.06,5.58-7.59,8.38-.17.18-.37.35-.66.62,0-1,0-1.81,0-2.63,0-2.13,0-4.27-.15-6.4a2,2,0,0,0-1.87-2,2,2,0,0,0-2.07,1.13,10.68,10.68,0,0,1,.63,2.24c.06,2.89,0,5.78,0,8.67,0,3.39,0,6.79,0,10.18A2,2,0,0,0,13,51.67a2.2,2.2,0,0,0,2.52-.92c-.22-.41-.6-.78-.61-1.16C14.89,46.81,14.91,44,14.91,41.08Z"/><path d="M30.78,21.68a16.67,16.67,0,0,1-7.29,4c-6.55,1.63-12-.47-16.16-6.22-2.9-4-4.59-8.53-6.18-13.13Q.6,4.76.1,3.16C-.16,2.32.1,2,1,1.93Q6.47,1.27,12,.54A37.52,37.52,0,0,1,22,.22c4.47.62,7.32,3.23,8.89,7.31A27.65,27.65,0,0,1,32,12.07a1.34,1.34,0,0,1-.4,1.12c-.21.17-.77,0-1.1-.15a5.56,5.56,0,0,1-1.39-1,2.26,2.26,0,0,1-.76-1.18C27.91,5.8,23.66,2.62,18,3.24c-3.92.43-7.82,1.09-11.73,1.65l-1.94.3C6,10,7.66,14.65,10.9,18.56c4.77,5.77,11.38,5.28,16.28,1.63.27-.2.52-.44.89-.76-.85-.62-1.63-1.22-2.45-1.76a23.88,23.88,0,0,0-7.85-3.74,1.6,1.6,0,0,1-1.34-2,1.75,1.75,0,0,1,2.13-1.23,19.73,19.73,0,0,1,6.6,2.65A35.44,35.44,0,0,1,37,24c.08.14.17.27.25.4a1.79,1.79,0,0,1-.38,2.51,1.83,1.83,0,0,1-2.47-.63q-1.3-1.73-2.64-3.43C31.43,22.43,31.12,22.08,30.78,21.68Z"/><path d="M46.37,38.06c.56-2.66-.73-4.5-2.85-5.9A8.6,8.6,0,0,0,39,30.91a10.78,10.78,0,0,0-6.17,1.28,5.72,5.72,0,0,0-1.29,9,18.77,18.77,0,0,0,6.52,4.21c2.74,1.21,5.5,2.43,8.21,3.73a13.74,13.74,0,0,1,2.41,1.62c3.43,2.61,3.74,6.2,1.89,9.74a11.6,11.6,0,0,1-6.84,5.59A16.55,16.55,0,0,1,29.94,65c-3-1.66-4.72-4.18-4.47-7.77a3,3,0,0,1,2.77-2.94,2.09,2.09,0,0,1,2.14,1c-2,3.22-1,6.38,2.47,7.79A12.37,12.37,0,0,0,45.8,61.44a5.46,5.46,0,0,0,2.33-5.59,5.38,5.38,0,0,0-2.48-3.31,23.43,23.43,0,0,0-3.35-1.89c-3.26-1.54-6.58-2.95-9.81-4.54-2.8-1.38-5-3.41-5.71-6.6A8,8,0,0,1,30,31a14,14,0,0,1,9-2.85,13.94,13.94,0,0,1,8.59,2.54,6.2,6.2,0,0,1,2.74,4.43C50.59,37.56,48.82,39,46.37,38.06Z"/><path d="M14.91,41.08c0,2.94,0,5.73,0,8.51,0,.38.39.75.61,1.16a2.2,2.2,0,0,1-2.52.92,2,2,0,0,1-1.54-2.19c0-3.39,0-6.79,0-10.18,0-2.89,0-5.78,0-8.67a10.68,10.68,0,0,0-.63-2.24,2,2,0,0,1,2.07-1.13,2,2,0,0,1,1.87,2c.13,2.13.11,4.27.15,6.4,0,.82,0,1.63,0,2.63.29-.27.49-.44.66-.62,2.53-2.8,5-5.59,7.59-8.38a11.33,11.33,0,0,1,1.22-1.18c2-1.58,3.77-1,4.36,1.19-1.33,1.12-2.6,2.12-3.78,3.21-2.36,2.21-4.67,4.47-7.07,6.77l3.71,3.8c1.62,1.67,3.22,3.36,4.9,5a8.39,8.39,0,0,0,2.17,1.42c.45.22.46.4.31.77a2.53,2.53,0,0,1-4.11.78,43.5,43.5,0,0,1-3.33-3.19c-2.05-2.08-4.06-4.2-6.09-6.3C15.32,41.41,15.17,41.31,14.91,41.08Z"/></g></g></svg>